<svg xmlns="http://www.w3.org/2000/svg" viewBox="0 0 58 58" width="512" height="512"><path data-original="#556080" data-old_color="#efc75d" fill="#efc75d" d="M6 14h46v44H6z"/><path data-original="#48536D" data-old_color="#d17d3d" fill="#d17d3d" d="M7 0h44v14H7z"/><path data-original="#6D7CA0" data-old_color="#efc75d" fill="#efc75d" d="M15 6L9 0H7v14h2l6-8"/><path data-original="#3D465B" data-old_color="#dda44e" fill="#dda44e" d="M15 6v8H9z"/><circle cx="21" cy="21" r="3" data-original="#3D465B" data-old_color="#dda44e" fill="#dda44e"/><circle cx="37" cy="21" r="3" data-original="#3D465B" data-old_color="#dda44e" fill="#dda44e"/><path data-original="#6D7CA0" data-old_color="#efc75d" fill="#efc75d" d="M43 6l6-6h2v14h-2l-6-8"/><path data-original="#3D465B" data-old_color="#dda44e" fill="#dda44e" d="M43 6v8h6z"/><path d="M29 36c-4.962 0-9-4.037-9-9v-6a1 1 0 1 1 2 0v6c0 3.859 3.14 7 7 7s7-3.141 7-7v-6a1 1 0 1 1 2 0v6c0 4.963-4.038 9-9 9z" data-original="#8697CB" class="active-path" data-old_color="#E0E5F6" fill="#edeff6"/></svg>