<svg xmlns="http://www.w3.org/2000/svg" viewBox="0 0 504.123 504.123"><path d="M50.018 204.8h404.086c18.905 0 34.265 15.754 34.265 35.052v189.834c0 19.298-15.36 35.052-34.265 35.052H50.018c-18.905 0-34.265-15.754-34.265-35.052V239.852c.001-19.298 15.361-35.052 34.265-35.052z" fill="#324d5b"/><path d="M15.754 252.062h472.615v15.754H15.754v-15.754z" fill="#2d4552"/><path d="M498.609 122.092c-10.634-10.634-17.723-16.935-27.963-27.569-3.545-3.545-9.846-7.877-13.391-7.877H47.262c-4.332 0-9.846 4.332-13.391 7.877-9.058 9.058-17.329 16.935-27.963 27.569C2.363 125.243 0 133.12 0 138.24v98.068c0 8.665 7.089 15.754 15.754 15.754h472.615c8.665 0 15.754-7.089 15.754-15.754V138.24c0-4.332-2.363-12.603-5.514-16.148z" fill="#3b5665"/><path d="M488.369 236.308H15.754C7.089 236.308 0 229.218 0 220.554v15.754c0 8.665 7.089 15.754 15.754 15.754h472.615c8.665 0 15.754-7.089 15.754-15.754v-15.36c0 8.27-7.089 15.36-15.754 15.36zm14.179-106.339c-.788-3.151-2.363-6.302-4.332-7.877-10.634-10.634-17.723-16.935-27.963-27.569-3.545-3.545-9.846-7.877-13.391-7.877h-409.6c-4.332 0-9.846 4.332-13.391 7.877-9.058 9.058-17.329 16.935-27.963 27.569-1.969 1.575-3.545 4.726-4.332 7.877h500.972z" fill="#4f6775"/><path d="M82.708 129.969v222.917c0 11.422 8.665 28.751 19.298 28.751s20.086-17.329 20.086-28.751V129.969l23.631-43.323h-38.597l-24.418 43.323zm314.289-43.323H358.4l23.631 43.323v222.917c0 11.422 9.452 28.751 20.086 28.751s19.298-17.329 19.298-28.751V129.969l-24.418-43.323z" fill="#d07c40"/><path d="M102.4 185.108c-4.332 0-7.877 3.545-7.877 7.877s3.545 7.877 7.877 7.877 7.877-3.545 7.877-7.877c0-4.333-3.545-7.877-7.877-7.877zm0 39.384c-4.332 0-7.877 3.545-7.877 7.877s3.545 7.877 7.877 7.877 7.877-3.545 7.877-7.877-3.545-7.877-7.877-7.877zm0 39.385c-4.332 0-7.877 3.545-7.877 7.877s3.545 7.877 7.877 7.877 7.877-3.545 7.877-7.877-3.545-7.877-7.877-7.877zm299.323-63.015c4.332 0 7.877-3.545 7.877-7.877s-3.545-7.877-7.877-7.877-7.877 3.545-7.877 7.877 3.545 7.877 7.877 7.877zm0 23.63c-4.332 0-7.877 3.545-7.877 7.877s3.545 7.877 7.877 7.877 7.877-3.545 7.877-7.877-3.545-7.877-7.877-7.877zm0 39.385c-4.332 0-7.877 3.545-7.877 7.877s3.545 7.877 7.877 7.877 7.877-3.545 7.877-7.877-3.545-7.877-7.877-7.877z" fill="#622a02"/><path d="M126.031 307.2H78.769c-4.332 0-7.877 3.545-7.877 7.877v15.754c0 4.332 3.545 7.877 7.877 7.877h47.262c4.332 0 7.877-3.545 7.877-7.877v-15.754c0-4.332-3.545-7.877-7.877-7.877zm299.323 0h-47.262c-4.332 0-7.877 3.545-7.877 7.877v15.754c0 4.332 3.545 7.877 7.877 7.877h47.262c4.332 0 7.877-3.545 7.877-7.877v-15.754c0-4.332-3.545-7.877-7.877-7.877z" fill="#e4e7e7"/><path d="M191.015 94.523c-11.815 0-21.662 5.12-21.662 11.815s9.846 11.815 21.662 11.815 21.662-5.12 21.662-11.815c0-6.301-9.846-11.815-21.662-11.815zm122.093 0c-11.815 0-21.662 5.12-21.662 11.815s9.846 11.815 21.662 11.815c11.815 0 21.662-5.12 21.662-11.815-.001-6.301-9.847-11.815-21.662-11.815z" fill="#2d4552"/><path d="M313.108 39.385H191.015c-7.483 0-13.785 6.302-13.785 13.785v49.23c0 4.332 6.302 7.877 13.785 7.877s13.785-3.545 13.785-7.877V66.954h94.523V102.4c0 4.332 6.302 7.877 13.785 7.877s13.785-3.545 13.785-7.877V53.169c-.001-7.483-6.302-13.784-13.785-13.784z" fill="#e4e7e7"/><path d="M82.708 129.969h39.385l23.631-43.323h-38.597l-24.419 43.323zm314.289-43.323H358.4l23.631 43.323h39.385l-24.419-43.323z" fill="#d58953"/></svg>