<svg xmlns="http://www.w3.org/2000/svg" viewBox="0 0 512 512"><path d="M497 110H15c-8.284 0-15 6.716-15 15v322c0 8.284 6.716 15 15 15h482c8.284 0 15-6.716 15-15V125c0-8.284-6.716-15-15-15z" fill="#6a82a1"/><path d="M497 110H256v352h241c8.284 0 15-6.716 15-15V125c0-8.284-6.716-15-15-15z" fill="#52677b"/><path d="M497 50H15C6.716 50 0 56.716 0 65v75h512V65c0-8.284-6.716-15-15-15z" fill="#15bdff"/><path d="M512 65c0-8.284-6.716-15-15-15H256v90h256V65z" fill="#3e9be3"/><g fill="#c1ef20"><path d="M416 233.5H186c-8.284 0-15-6.716-15-15s6.716-15 15-15h230c8.284 0 15 6.716 15 15s-6.716 15-15 15zm0 170H96c-8.284 0-15-6.716-15-15s6.716-15 15-15h320c8.284 0 15 6.716 15 15s-6.716 15-15 15z"/><circle cx="116" cy="218.5" r="20"/><path d="M256 318.5H96c-8.284 0-15-6.716-15-15s6.716-15 15-15h160c8.284 0 15 6.716 15 15s-6.716 15-15 15z"/></g><g fill="#9dd50d"><path d="M416 203.5H256v30h160c8.284 0 15-6.716 15-15s-6.716-15-15-15zm0 170H256v30h160c8.284 0 15-6.716 15-15s-6.716-15-15-15zm-160-85v30c8.284 0 15-6.716 15-15s-6.716-15-15-15z"/><circle cx="396" cy="303.5" r="20"/><circle cx="326" cy="303.5" r="20"/></g></svg>