<svg xmlns="http://www.w3.org/2000/svg" viewBox="0 0 503.533 503.533"><path d="M289.871 397.982c-3.151 3.151-9.846 3.938-14.178-.394-39.778-40.566-97.674-34.265-125.637-5.908-18.511 18.905-28.751 49.231-42.142 67.742-7.089 10.24-16.148 20.48-25.994 30.326 0 0-11.815 13.391-33.477 13.391C21.662 503.138 0 481.477 0 454.695c0-20.874 13.391-33.477 13.391-33.477l.394-.394.394-.394c9.452-9.452 19.298-18.117 29.145-25.206 18.511-13.391 48.443-23.631 66.954-42.535 27.963-28.357 34.265-86.646-5.514-126.818-1.969-1.969-3.151-5.12-2.757-7.483 0-2.757 1.575-5.514 3.151-7.089l50.806-51.2 184.32 186.289-50.413 51.594z" fill="#415661"/><path d="M105.551 211.298c-1.575 1.575-2.757 4.332-3.151 7.089 0 2.757.788 5.514 2.757 7.483 39.778 40.172 33.871 98.462 5.514 126.818-18.511 18.905-48.837 29.145-66.954 42.535-9.846 7.089-19.692 15.754-29.145 25.206l-.394.394-.394.394C18.51 416.491.393 431.457.393 454.694c0 13.391 5.514 25.206 14.178 34.265l230.006-229.612-76.406-87.434-11.815-11.815-50.805 51.2z" fill="#3a4d57"/><path d="M330.437 4.923l168.566 168.172c5.514 5.514 5.514 14.178 0 19.692L389.908 301.883c-5.514 5.514-14.178 5.514-19.692 0l-168.96-168.172c-5.514-5.514-5.514-14.178 0-19.692L310.745 4.923c5.12-5.514 14.178-5.514 19.692 0z" fill="#f4f0d3"/><path d="M200.468 115.2l197.317 178.412-72.074 68.135-192.985-178.018 67.742-68.529z" fill="#d3d5d6"/><path d="M200.468 115.2l99.643 89.797L230.4 273.92l-97.674-89.797 67.742-68.923z" fill="#c8cacb"/><path d="M278.055 259.348c-6.302 6.302-6.302 16.148 0 22.449 6.302 6.302 16.148 6.302 22.449 0 6.302-6.302 6.302-16.148 0-22.449-5.907-5.908-16.147-5.908-22.449 0zm58.29 35.446c-6.302-6.302-16.148-6.302-22.449 0-6.302 6.302-6.302 16.148 0 22.449 6.302 6.302 16.148 6.302 22.449 0 5.907-6.301 5.907-16.148 0-22.449z" fill="#bdbfc0"/><path d="M484.825 158.917c-2.757-2.757-7.089-2.757-9.846 0l-85.071 84.677c-2.757 2.757-2.757 7.089 0 9.846 2.757 2.757 7.089 2.757 9.846 0l85.071-84.677c2.757-2.757 2.757-7.089 0-9.846zm-23.631-23.631c-2.757-2.757-7.089-2.757-9.846 0l-85.071 84.677c-2.757 2.757-2.757 7.089 0 9.846 2.757 2.757 7.089 2.757 9.846 0l85.071-84.677c2.757-2.757 2.757-7.089 0-9.846zm-47.656-47.261c-2.757-2.757-7.089-2.757-9.846 0l-85.071 84.283c-2.757 2.757-2.757 7.089 0 9.846 2.757 2.757 7.089 2.757 9.846 0l85.071-84.283c2.757-2.757 2.757-7.089 0-9.846zm-23.63-23.631c-2.757-2.757-7.089-2.757-9.846 0l-85.071 84.283c-2.757 2.757-2.757 7.089 0 9.846 2.757 2.757 7.089 2.757 9.846 0l85.071-84.283c2.757-2.757 2.757-7.089 0-9.846zm-24.025-24.025c-2.757-2.757-7.089-2.757-9.846 0l-84.677 84.677c-2.757 2.757-2.757 7.089 0 9.846 2.757 2.757 7.089 2.757 9.846 0l84.677-84.283c2.757-2.757 2.757-7.483 0-10.24zm-23.631-23.631c-2.757-2.757-7.089-2.757-9.846 0l-85.071 84.677c-2.757 2.757-2.757 7.089 0 9.846s7.089 2.757 9.846 0l85.071-84.677c2.757-2.756 2.757-7.089 0-9.846z" fill="#e8e4c8"/><path d="M499.397 172.702L330.437 4.529c-5.514-5.514-14.178-5.514-19.692 0l-12.209 12.209 74.831 74.043c5.908 11.028 4.332 24.812-6.302 34.265l-9.452 11.028c-6.302 5.514-6.302 14.966 0 20.48s16.935 5.12 22.055-.788l-29.145 28.357c-5.908 5.514-5.908 14.572 0 20.086s14.966 5.514 20.874 0l13.391-13.391c-5.514 5.514-5.514 14.572 0 20.086 5.514 5.514 14.178 5.514 19.692 0l24.418-25.6c11.028-11.422 29.145-11.422 40.566 0l18.511 18.117L499.397 192c5.514-4.726 5.514-13.785 0-19.298z" fill="#e2574c"/><path d="M205.588 164.825c6.302 6.302 6.302 16.148 0 22.449-6.302 6.302-16.148 6.302-22.449 0-6.302-6.302-6.302-16.148 0-22.449 6.301-6.302 16.147-6.302 22.449 0zm35.446 35.446c6.302 6.302 6.302 16.148 0 22.449-6.302 6.302-16.148 6.302-22.449 0-6.302-6.302-6.302-16.148 0-22.449 6.301-6.302 16.541-6.302 22.449 0z" fill="#b4b5b6"/><path d="M367.458 124.652l-9.452 11.028c-6.302 5.514-6.302 14.572 0 20.48 5.908 5.12 15.36 5.12 20.874.394l9.058-8.665c-5.514 5.514-15.754 6.302-22.055.788-6.302-5.514-6.302-14.572 0-20.48l9.452-11.028c10.24-9.058 11.815-23.237 6.302-33.871L306.806 9.649l-7.877 7.877 74.831 73.649c5.514 10.634 3.939 24.419-6.302 33.477zm-8.664 71.68c-5.514-5.12-5.514-13.785-.788-19.298l-7.089 6.695c-5.908 5.514-5.908 14.572 0 20.086s14.966 5.514 20.874 0l7.877-7.877c-5.908 5.908-14.966 5.908-20.874.394zm33.871 7.09c-5.514-5.514-5.514-14.572 0-20.086l-7.877 7.877c-5.514 5.514-5.514 14.572 0 20.086s14.178 5.514 19.692 0l6.302-6.302c-5.514 3.938-12.997 3.151-18.117-1.575zm102.793-7.484l-18.511-17.723a27.831 27.831 0 0 0-40.172 0l-5.514 5.514c11.028-9.058 27.569-8.271 37.809 1.969l18.511 17.723L499.003 192l-3.545 3.938z" fill="#d65348"/></svg>