<svg xmlns="http://www.w3.org/2000/svg" viewBox="0 0 512 512"><path d="M150.069 97.103h52.966a8.829 8.829 0 0 1 8.828 8.828v17.655h-70.621v-17.655a8.827 8.827 0 0 1 8.827-8.828zm-70.621-8.827h35.31a8.829 8.829 0 0 1 8.828 8.828v26.483H70.621V97.103a8.827 8.827 0 0 1 8.827-8.827z" fill="#c7cfe2"/><path d="M503.172 88.276H238.345a8.829 8.829 0 0 0-8.828 8.828v8.828a8.829 8.829 0 0 1-8.828 8.828H8.828A8.829 8.829 0 0 0 0 123.588v291.31a8.829 8.829 0 0 0 8.828 8.828h494.345a8.829 8.829 0 0 0 8.828-8.828V97.103a8.83 8.83 0 0 0-8.829-8.827z" fill="#e4eaf6"/><path fill="#ff6464" d="M0 194.207h512v211.862H0z"/><circle cx="256" cy="282.483" r="105.931" fill="#c7cfe2"/><circle cx="256" cy="282.483" r="88.276" fill="#464655"/><circle cx="256" cy="282.483" r="61.793" fill="#5b5d6e"/><path d="M256 264.828c-9.737 0-17.655 7.918-17.655 17.655s7.918 17.655 17.655 17.655c9.737 0 17.655-7.918 17.655-17.655s-7.918-17.655-17.655-17.655z" fill="#464655"/><path d="M295.724 220.69c-12.171 0-22.069 9.898-22.069 22.069s9.898 22.069 22.069 22.069 22.069-9.898 22.069-22.069-9.898-22.069-22.069-22.069z" fill="#d7deed"/><path d="M264.828 260.414c-7.303 0-13.241 5.939-13.241 13.241s5.939 13.241 13.241 13.241 13.241-5.939 13.241-13.241-5.939-13.241-13.241-13.241zm47.492-3.264a61.958 61.958 0 0 0-30.987-30.987c-4.663 4.049-7.678 9.948-7.678 16.596 0 12.171 9.898 22.069 22.069 22.069 6.648 0 12.547-3.015 16.596-7.678z" fill="#fff"/><path d="M397.241 105.931h88.276a8.829 8.829 0 0 1 8.828 8.828v52.966a8.829 8.829 0 0 1-8.828 8.828h-88.276a8.829 8.829 0 0 1-8.828-8.828v-52.966a8.83 8.83 0 0 1 8.828-8.828z" fill="#5b5d6e"/><path d="M467.862 158.897h-52.966a8.829 8.829 0 0 1-8.828-8.828v-17.655a8.829 8.829 0 0 1 8.828-8.828h52.966a8.829 8.829 0 0 1 8.828 8.828v17.655a8.829 8.829 0 0 1-8.828 8.828z" fill="#464655"/><circle cx="441.379" cy="141.241" r="8.828" fill="#fff"/><circle cx="472.276" cy="128" r="13.241" fill="#d7deed"/><path d="M467.862 123.586h-8.018c-.493 1.387-.81 2.858-.81 4.414 0 7.313 5.929 13.241 13.241 13.241 1.556 0 3.027-.318 4.414-.81v-8.018c.001-4.874-3.952-8.827-8.827-8.827z" fill="#fff"/><path d="M158.897 167.724h35.31a8.829 8.829 0 0 0 8.828-8.828v-17.655a8.829 8.829 0 0 0-8.828-8.828h-35.31a8.829 8.829 0 0 0-8.828 8.828v17.655a8.828 8.828 0 0 0 8.828 8.828z" fill="#5b5d6e"/><circle cx="97.103" cy="194.207" r="26.483" fill="#959cb3"/><circle cx="97.103" cy="194.207" r="8.828" fill="#5b5d6e"/><circle cx="123.586" cy="282.483" r="26.483" fill="#959cb3"/><circle cx="123.586" cy="282.483" r="8.828" fill="#5b5d6e"/></svg>